# xmcd CD database file
#
# Track frame offsets:
#	150
#	21367
#	55163
#	78004
#	128733
#	147146
#	168960
#	186938
#	229359
#	268861
#	298759
#
# Disc length: 4514 seconds
#
# Revision: 0
# Processed by: cddbd v1.5.2PL0 Copyright (c) Steve Scherf et al.
# Submitted via: CDex 1.70beta2
#
DISCID=9b11a00b
DTITLE=Samora and Elana Pinderhuges - Catch 22
DYEAR=2005
DGENRE=Jazz
TTITLE0=Bata
TTITLE1=Catch 22
TTITLE2=October Moon
TTITLE3=Moanin'
TTITLE4=Vals del Olivido
TTITLE5=Love Vibrations
TTITLE6=El Municero
TTITLE7=Footprints
TTITLE8=Little Sunflower
TTITLE9=Girl From Ipanema
TTITLE10=Laneology
EXTD=YEAR: 2005
EXTT0=
EXTT1=
EXTT2=
EXTT3=
EXTT4=
EXTT5=
EXTT6=
EXTT7=
EXTT8=
EXTT9=
EXTT10=
PLAYORDER=
